<svg width="29" height="26" xmlns="http://www.w3.org/2000/svg"><g transform="translate(-2)" fill="none" fill-rule="evenodd"><path d="M0 4L24 4 24 28 0 28z"/><path d="M26 .5v9M21.5 5h9" stroke="#FFF" stroke-linecap="square"/><path d="M16.545 17c.75 0 1.41-.41 1.749-1.03l3.579-6.49a.996.996 0 0 0-.87-1.48H6.208l-.94-2H2v2h2l3.598 7.59-1.35 2.44c-.73 1.34.23 2.97 1.75 2.97h11.995v-2H7.998l1.1-2h7.447zm-9.387-7h12.146l-2.76 5H9.528l-2.37-5zm.84 12c-1.1 0-1.99.9-1.99 2s.89 2 1.99 2 1.999-.9 1.999-2-.9-2-2-2h.001zm9.996 0c-1.1 0-1.99.9-1.99 2s.89 2 1.99 2 2-.9 2-2-.9-2-2-2z" fill="#FFF" fill-rule="nonzero"/></g></svg>