<svg width="24" height="24" xmlns="http://www.w3.org/2000/svg"><path d="M20.035 1H3.965A2.965 2.965 0 0 0 1 3.965v16.07A2.965 2.965 0 0 0 3.965 23h7.926l.013-7.862H9.862a.482.482 0 0 1-.482-.48l-.01-2.534a.482.482 0 0 1 .482-.484h2.039V9.192c0-2.842 1.735-4.389 4.27-4.389h2.08c.266 0 .482.216.482.482v2.137a.482.482 0 0 1-.482.482h-1.276c-1.379 0-1.646.655-1.646 1.617v2.12h3.03c.288 0 .512.252.478.538l-.3 2.534a.482.482 0 0 1-.479.426h-2.715L15.319 23h4.716A2.965 2.965 0 0 0 23 20.036V3.965A2.965 2.965 0 0 0 20.035 1z"/></svg>