<svg width="24" height="24" viewBox="0 0 24 24" xmlns="http://www.w3.org/2000/svg"><g fill="none" fill-rule="evenodd"><path d="M0 0H24V24H0z"/><path d="M16.42 1a6.55 6.55 0 0 1 6.541 6.542v8.877a6.55 6.55 0 0 1-6.542 6.543H7.542A6.55 6.55 0 0 1 1 16.419V7.542A6.55 6.55 0 0 1 7.542 1h8.877zm4.332 15.42V7.541A4.333 4.333 0 0 0 16.42 3.21H7.542A4.333 4.333 0 0 0 3.21 7.542v8.877a4.333 4.333 0 0 0 4.333 4.333h8.877a4.333 4.333 0 0 0 4.333-4.333zM11.981 6.3a5.686 5.686 0 0 1 5.68 5.68 5.686 5.686 0 0 1-5.68 5.68 5.686 5.686 0 0 1-5.68-5.68 5.686 5.686 0 0 1 5.68-5.68zm0 9.151a3.47 3.47 0 1 0 0-6.941 3.47 3.47 0 0 0 0 6.941zm5.69-7.747a1.361 1.361 0 1 1 0-2.722 1.361 1.361 0 0 1 0 2.722z" fill="#FFF" fill-rule="nonzero"/></g></svg>