<svg xmlns="http://www.w3.org/2000/svg" width="20" height="19" viewBox="0 0 20 19">
  <path d="M7.44047619,9.42460317 L4.96031746,9.42460317 C4.41267655,9.42523188 3.96888267,9.86902576 3.96825397,10.4166667 L3.96825397,12.8968254 C3.96888267,13.4444663 4.41267655,13.8882602 4.96031746,13.8888889 L7.44047619,13.8888889 C7.9881171,13.8882602 8.43191098,13.4444663 8.43253968,12.8968254 L8.43253968,10.4166667 C8.43191098,9.86902576 7.9881171,9.42523188 7.44047619,9.42460317 Z M4.96031746,12.8968254 L4.96031746,10.4166667 L7.44047619,10.4166667 L7.44122024,12.8968254 L4.96031746,12.8968254 Z M19.3452381,17.3611111 L17.8571429,17.3611111 L17.8571429,6.37797619 C18.7309231,6.15312986 19.3425888,5.36652775 19.3452381,4.46428571 L19.3452381,2.97619048 C19.3452381,2.96626984 19.3402778,2.9577381 19.3395337,2.94781746 C19.3369273,2.90053081 19.3275046,2.85386853 19.3115575,2.80927579 C19.3048383,2.79108505 19.2970027,2.77332641 19.2880952,2.75610119 C19.2699863,2.72038802 19.2475091,2.68706385 19.2211806,2.65689484 C19.2096503,2.64207913 19.1972439,2.62796661 19.1840278,2.61463294 C19.1775298,2.60858135 19.1736111,2.60069444 19.1667163,2.59479167 L16.4666667,0.345386905 C16.1992013,0.122408346 15.8620592,0.000198949234 15.5138393,0 L4.32743056,0 C3.97944189,0.000256137668 3.64251223,0.122270299 3.3750496,0.344890873 L0.674603175,2.59494048 C0.667708333,2.60069444 0.663789683,2.60858135 0.657291667,2.61478175 C0.644075575,2.62811542 0.631669146,2.64222794 0.620138889,2.65704365 C0.593810299,2.68721266 0.571333146,2.72053683 0.553224206,2.75625 C0.54431677,2.77347522 0.536481103,2.79123386 0.529761905,2.8094246 C0.513814844,2.85401734 0.504392171,2.90067962 0.501785714,2.94796627 C0.500992063,2.9577381 0.496031746,2.96626984 0.496031746,2.97619048 L0.496031746,4.46428571 C0.498681064,5.36652775 1.11034678,6.15312986 1.98412698,6.37797619 L1.98412698,17.3611111 L0.496031746,17.3611111 C0.222080977,17.3611111 0,17.5831921 0,17.8571429 C0,18.1310936 0.222080977,18.3531746 0.496031746,18.3531746 L19.3452381,18.3531746 C19.6191889,18.3531746 19.8412698,18.1310936 19.8412698,17.8571429 C19.8412698,17.5831921 19.6191889,17.3611111 19.3452381,17.3611111 Z M18.3531746,4.46428571 C18.3531746,5.01218725 17.9090126,5.45634921 17.3611111,5.45634921 C16.8132096,5.45634921 16.3690476,5.01218725 16.3690476,4.46428571 L16.3690476,3.47222222 L18.3531746,3.47222222 L18.3531746,4.46428571 Z M4.01016865,1.10684524 C4.09931483,1.03264609 4.21164382,0.992032142 4.32762897,0.992063474 L15.5138393,0.992063474 C15.6299017,0.992082951 15.7422668,1.03288554 15.8312996,1.10734127 L17.4790675,2.48015873 L2.36220238,2.48015873 L4.01016865,1.10684524 Z M15.3769841,3.47222222 L15.3769841,4.46428571 C15.3769841,5.01218725 14.9328222,5.45634921 14.3849206,5.45634921 C13.8370191,5.45634921 13.3928571,5.01218725 13.3928571,4.46428571 L13.3928571,3.47222222 L15.3769841,3.47222222 Z M12.4007937,3.47222222 L12.4007937,4.46428571 C12.4007937,5.01218725 11.9566317,5.45634921 11.4087302,5.45634921 C10.8608286,5.45634921 10.4166667,5.01218725 10.4166667,4.46428571 L10.4166667,3.47222222 L12.4007937,3.47222222 Z M9.42460317,3.47222222 L9.42460317,4.46428571 C9.42460317,5.01218725 8.98044122,5.45634921 8.43253968,5.45634921 C7.88463815,5.45634921 7.44047619,5.01218725 7.44047619,4.46428571 L7.44047619,3.47222222 L9.42460317,3.47222222 Z M6.4484127,3.47222222 L6.4484127,4.46428571 C6.4484127,5.01218725 6.00425074,5.45634921 5.45634921,5.45634921 C4.90844767,5.45634921 4.46428571,5.01218725 4.46428571,4.46428571 L4.46428571,3.47222222 L6.4484127,3.47222222 Z M1.48809524,4.46428571 L1.48809524,3.47222222 L3.47222222,3.47222222 L3.47222222,4.46428571 C3.47222222,5.01218725 3.02806027,5.45634921 2.48015873,5.45634921 C1.93225719,5.45634921 1.48809524,5.01218725 1.48809524,4.46428571 Z M14.3849206,17.3611111 L10.4166667,17.3611111 L10.4166667,10.4166667 L14.3849206,10.4166667 L14.3849206,17.3611111 Z M15.3769841,17.3611111 L15.3769841,10.4166667 C15.3763554,9.86902576 14.9325615,9.42523188 14.3849206,9.42460317 L10.4166667,9.42460317 C9.86902576,9.42523188 9.42523188,9.86902576 9.42460317,10.4166667 L9.42460317,17.3611111 L2.97619048,17.3611111 L2.97619048,6.37787698 C3.36075746,6.27623242 3.70620637,6.0620541 3.96825397,5.76279762 C4.34020278,6.19789143 4.88393979,6.44840718 5.45634921,6.44840718 C6.02875862,6.44840718 6.57249564,6.19789143 6.94444444,5.76279762 C7.31639325,6.19789143 7.86013027,6.44840718 8.43253968,6.44840718 C9.0049491,6.44840718 9.54868611,6.19789143 9.92063492,5.76279762 C10.2925837,6.19789143 10.8363207,6.44840718 11.4087302,6.44840718 C11.9811396,6.44840718 12.5248766,6.19789143 12.8968254,5.76279762 C13.2687742,6.19789143 13.8125112,6.44840718 14.3849206,6.44840718 C14.95733,6.44840718 15.5010671,6.19789143 15.8730159,5.76279762 C16.1350714,6.06204479 16.4805172,6.27622121 16.8650794,6.37787698 L16.8650794,17.3611111 L15.3769841,17.3611111 Z"/>
</svg>
