<svg xmlns="http://www.w3.org/2000/svg" width="20" height="20" viewBox="0 0 20 20">
  <path fill="none" d="M2.76639344,13.3770492 C3.31967213,13.3770492 3.79952186,13.2967896 4.20594262,13.1362705 C4.61236339,12.9757514 4.92827869,12.7435109 5.15368852,12.4395492 C5.37909836,12.1355874 5.49180328,11.7684426 5.49180328,11.3381148 C5.49180328,10.9487705 5.40812842,10.6294399 5.24077869,10.380123 C5.07342896,10.130806 4.81557377,9.92247268 4.46721311,9.75512295 C4.11885246,9.58777322 3.67144809,9.42896175 3.125,9.27868852 C2.67418033,9.1489071 2.30874317,9.02595628 2.02868852,8.90983607 C1.74863388,8.79371585 1.54371585,8.65881148 1.41393443,8.50512295 C1.28415301,8.35143443 1.2192623,8.15846995 1.2192623,7.92622951 C1.2192623,7.56420765 1.35758197,7.29781421 1.63422131,7.12704918 C1.91086066,6.95628415 2.27117486,6.87090164 2.71516393,6.87090164 C3.1523224,6.87090164 3.50751366,6.96653005 3.7807377,7.15778689 C4.05396175,7.34904372 4.21106557,7.58469945 4.25204918,7.8647541 C4.27937158,7.93989071 4.31864754,7.99112022 4.36987705,8.01844262 C4.42110656,8.04576503 4.47062842,8.05942623 4.51844262,8.05942623 L4.51844262,8.05942623 L5.06147541,8.05942623 C5.13661202,8.05942623 5.19125683,8.03722678 5.22540984,7.99282787 C5.25956284,7.94842896 5.27663934,7.9023224 5.27663934,7.8545082 C5.26980874,7.64959016 5.21174863,7.43954918 5.10245902,7.22438525 C4.9931694,7.00922131 4.83265027,6.80771858 4.62090164,6.61987705 C4.40915301,6.43203552 4.14446721,6.2817623 3.82684426,6.16905738 C3.50922131,6.05635246 3.1386612,6 2.71516393,6 C2.18920765,6 1.73838798,6.08538251 1.36270492,6.25614754 C0.987021858,6.42691257 0.700136612,6.65744536 0.50204918,6.9477459 C0.303961749,7.23804645 0.204918033,7.56762295 0.204918033,7.93647541 C0.204918033,8.32581967 0.285177596,8.64685792 0.445696721,8.89959016 C0.606215847,9.1523224 0.850409836,9.36407104 1.17827869,9.53483607 C1.50614754,9.70560109 1.91939891,9.86270492 2.41803279,10.0061475 C2.89617486,10.1427596 3.28551913,10.2691257 3.58606557,10.3852459 C3.88661202,10.5013661 4.11031421,10.6328552 4.25717213,10.7797131 C4.40403005,10.926571 4.47745902,11.1195355 4.47745902,11.3586066 C4.47745902,11.7069672 4.33913934,11.9853142 4.0625,12.1936475 C3.78586066,12.4019809 3.35382514,12.5061475 2.76639344,12.5061475 C2.38387978,12.5061475 2.07137978,12.4532104 1.82889344,12.3473361 C1.5864071,12.2414617 1.40027322,12.108265 1.2704918,11.9477459 C1.14071038,11.7872268 1.05532787,11.625 1.01434426,11.4610656 C1.00068306,11.4064208 0.973360656,11.3586066 0.932377049,11.317623 C0.891393443,11.2766393 0.829918033,11.2561475 0.74795082,11.2561475 L0.74795082,11.2561475 L0.225409836,11.2561475 C0.163934426,11.2561475 0.110997268,11.278347 0.0665983607,11.3227459 C0.0221994536,11.3671448 0,11.4166667 0,11.4713115 C0.0136612022,11.7923497 0.12807377,12.0980191 0.343237705,12.3883197 C0.558401639,12.6786202 0.867486339,12.9159836 1.2704918,13.1004098 C1.67349727,13.2848361 2.17213115,13.3770492 2.76639344,13.3770492 Z M7.57172131,13.2745902 C7.64002732,13.2745902 7.69637978,13.2523907 7.74077869,13.2079918 C7.7851776,13.1635929 7.80737705,13.1072404 7.80737705,13.0389344 L7.80737705,13.0389344 L7.80737705,7.99795082 L9.52868852,11.3381148 C9.56284153,11.4064208 9.60382514,11.4593579 9.65163934,11.4969262 C9.69945355,11.5344945 9.76775956,11.5532787 9.85655738,11.5532787 L9.85655738,11.5532787 L10.1741803,11.5532787 C10.2561475,11.5532787 10.3244536,11.5344945 10.3790984,11.4969262 C10.4337432,11.4593579 10.4747268,11.4064208 10.5020492,11.3381148 L10.5020492,11.3381148 L12.2131148,7.99795082 L12.2131148,13.0389344 C12.2131148,13.1072404 12.2353142,13.1635929 12.2797131,13.2079918 C12.324112,13.2523907 12.3804645,13.2745902 12.4487705,13.2745902 L12.4487705,13.2745902 L12.9508197,13.2745902 C13.0259563,13.2745902 13.085724,13.2523907 13.130123,13.2079918 C13.1745219,13.1635929 13.1967213,13.1072404 13.1967213,13.0389344 L13.1967213,13.0389344 L13.1967213,6.34836066 C13.1967213,6.27322404 13.1745219,6.21345628 13.130123,6.16905738 C13.085724,6.12465847 13.0259563,6.10245902 12.9508197,6.10245902 L12.9508197,6.10245902 L12.4487705,6.10245902 C12.3668033,6.10245902 12.3070355,6.12295082 12.2694672,6.16393443 C12.2318989,6.20491803 12.2062842,6.23907104 12.192623,6.26639344 L12.192623,6.26639344 L10.0102459,10.4057377 L7.84836066,6.26639344 C7.83469945,6.23907104 7.80737705,6.20491803 7.76639344,6.16393443 C7.72540984,6.12295082 7.66393443,6.10245902 7.58196721,6.10245902 L7.58196721,6.10245902 L7.06967213,6.10245902 C7.00136612,6.10245902 6.94501366,6.12465847 6.90061475,6.16905738 C6.85621585,6.21345628 6.83401639,6.27322404 6.83401639,6.34836066 L6.83401639,6.34836066 L6.83401639,13.0389344 C6.83401639,13.1072404 6.85621585,13.1635929 6.90061475,13.2079918 C6.94501366,13.2523907 7.00136612,13.2745902 7.06967213,13.2745902 L7.06967213,13.2745902 L7.57172131,13.2745902 Z M17.2745902,13.3770492 C17.8278689,13.3770492 18.3077186,13.2967896 18.7141393,13.1362705 C19.1205601,12.9757514 19.4364754,12.7435109 19.6618852,12.4395492 C19.8872951,12.1355874 20,11.7684426 20,11.3381148 C20,10.9487705 19.9163251,10.6294399 19.7489754,10.380123 C19.5816257,10.130806 19.3237705,9.92247268 18.9754098,9.75512295 C18.6270492,9.58777322 18.1796448,9.42896175 17.6331967,9.27868852 C17.182377,9.1489071 16.8169399,9.02595628 16.5368852,8.90983607 C16.2568306,8.79371585 16.0519126,8.65881148 15.9221311,8.50512295 C15.7923497,8.35143443 15.727459,8.15846995 15.727459,7.92622951 C15.727459,7.56420765 15.8657787,7.29781421 16.142418,7.12704918 C16.4190574,6.95628415 16.7793716,6.87090164 17.2233607,6.87090164 C17.6605191,6.87090164 18.0157104,6.96653005 18.2889344,7.15778689 C18.5621585,7.34904372 18.7192623,7.58469945 18.7602459,7.8647541 C18.7875683,7.93989071 18.8268443,7.99112022 18.8780738,8.01844262 C18.9293033,8.04576503 18.9788251,8.05942623 19.0266393,8.05942623 L19.0266393,8.05942623 L19.5696721,8.05942623 C19.6448087,8.05942623 19.6994536,8.03722678 19.7336066,7.99282787 C19.7677596,7.94842896 19.7848361,7.9023224 19.7848361,7.8545082 C19.7780055,7.64959016 19.7199454,7.43954918 19.6106557,7.22438525 C19.5013661,7.00922131 19.340847,6.80771858 19.1290984,6.61987705 C18.9173497,6.43203552 18.6526639,6.2817623 18.335041,6.16905738 C18.017418,6.05635246 17.6468579,6 17.2233607,6 C16.6974044,6 16.2465847,6.08538251 15.8709016,6.25614754 C15.4952186,6.42691257 15.2083333,6.65744536 15.0102459,6.9477459 C14.8121585,7.23804645 14.7131148,7.56762295 14.7131148,7.93647541 C14.7131148,8.32581967 14.7933743,8.64685792 14.9538934,8.89959016 C15.1144126,9.1523224 15.3586066,9.36407104 15.6864754,9.53483607 C16.0143443,9.70560109 16.4275956,9.86270492 16.9262295,10.0061475 C17.4043716,10.1427596 17.7937158,10.2691257 18.0942623,10.3852459 C18.3948087,10.5013661 18.6185109,10.6328552 18.7653689,10.7797131 C18.9122268,10.926571 18.9856557,11.1195355 18.9856557,11.3586066 C18.9856557,11.7069672 18.8473361,11.9853142 18.5706967,12.1936475 C18.2940574,12.4019809 17.8620219,12.5061475 17.2745902,12.5061475 C16.8920765,12.5061475 16.5795765,12.4532104 16.3370902,12.3473361 C16.0946038,12.2414617 15.9084699,12.108265 15.7786885,11.9477459 C15.6489071,11.7872268 15.5635246,11.625 15.522541,11.4610656 C15.5088798,11.4064208 15.4815574,11.3586066 15.4405738,11.317623 C15.3995902,11.2766393 15.3381148,11.2561475 15.2561475,11.2561475 L15.2561475,11.2561475 L14.7336066,11.2561475 C14.6721311,11.2561475 14.619194,11.278347 14.5747951,11.3227459 C14.5303962,11.3671448 14.5081967,11.4166667 14.5081967,11.4713115 C14.5218579,11.7923497 14.6362705,12.0980191 14.8514344,12.3883197 C15.0665984,12.6786202 15.3756831,12.9159836 15.7786885,13.1004098 C16.181694,13.2848361 16.6803279,13.3770492 17.2745902,13.3770492 Z"/>
</svg>
